<svg viewBox="0 0 200 200" color-interpolation-filters="sRGB" style="margin:auto" xmlns="http://www.w3.org/2000/svg"><mask id="b"><g fill="#fff"><path stroke-width="2" class="image-rect" d="M0 0h132.5v132.606H0z"/><svg width="132.5" height="132.606" class="image-svg-svg primary" style="overflow:visible" filter="url(#a)"><svg xmlns="http://www.w3.org/2000/svg" viewBox="5.015 4.975 89.967 90.039"><path d="M49.999 4.975c-24.822 0-44.984 20.171-44.984 45.02 0 24.848 20.162 45.02 44.984 45.02 24.822 0 44.983-20.172 44.983-45.02 0-24.849-20.161-45.02-44.983-45.02zm0 3.032c23.227 0 42.02 18.787 42.02 41.988 0 23.2-18.793 41.987-42.02 41.987-23.227 0-42.02-18.787-42.02-41.987 0-23.2 18.793-41.988 42.02-41.988z" color="#000"/></svg></svg></g><path d="M-3.5-3.5h159.05v40.42H-3.5z" transform="translate(-9.775 42.854)"/><path transform="translate(3.855 81.274)" d="M-3.5-3.5h131.79v14.48H-3.5z"/><path d="M4.57 0h25.19q.64 0 1.07-.44.47-.46.47-1.1v-30.32q0-.66-.47-1.1-.43-.46-1.07-.46h-2.05q-.66 0-1.1.46-.46.44-.46 1.1v25.17q0 .64-.44 1.1-.47.44-1.1.44h-3.35q-.63 0-1.07-.44-.46-.46-.46-1.1v-12.33q0-.63-.44-1.1-.47-.44-1.1-.44h-2.05q-.64 0-1.1.44-.44.47-.44 1.1v12.33q0 .64-.46 1.1-.44.44-1.08.44H9.72q-.64 0-1.1-.44-.44-.46-.44-1.1v-25.17q0-.66-.47-1.1-.43-.46-1.09-.46H4.57q-.64 0-1.08.46-.46.44-.46 1.1v30.32q0 .64.46 1.1.44.44 1.08.44Zm55.85-5.15H40.38q-.63 0-1.07.46-.47.44-.47 1.1v2.05q0 .64.47 1.08.44.46 1.07.46h20.04q.64 0 1.1-.46.44-.44.44-1.08v-2.05q0-.66-.44-1.1-.46-.46-1.1-.46Zm0-14.14H40.38q-.63 0-1.07.47-.47.44-.47 1.1v2.05q0 .63.47 1.09.44.44 1.07.44h20.04q.64 0 1.1-.44.44-.46.44-1.09v-2.05q0-.66-.44-1.1-.46-.47-1.1-.47Zm0-14.13H40.38q-.63 0-1.07.46-.47.44-.47 1.1v2.05q0 .64.47 1.1.44.44 1.07.44h20.04q.64 0 1.1-.44.44-.46.44-1.1v-2.05q0-.66-.44-1.1-.46-.46-1.1-.46Zm30.67 0H71.04q-.63 0-1.09.46-.44.44-.44 1.1v2.05q0 .64.44 1.1.46.44 1.09.44h14.92q.64 0 1.08.46.46.44.46 1.08v5.9q0 .64-.46 1.1-.44.44-1.08.44H71.04q-.63 0-1.09.47-.44.44-.44 1.1v2.05q0 .63.44 1.09.46.44 1.09.44h14.92q.64 0 1.08.47.46.44.46 1.07v5.91q0 .64-.46 1.1-.44.44-1.08.44H71.04q-.63 0-1.09.46-.44.44-.44 1.1v2.05q0 .64.44 1.08.46.46 1.09.46h20.05q.63 0 1.1-.46.44-.44.44-1.08v-30.32q0-.66-.44-1.1-.47-.46-1.1-.46Zm14.4 28.27h-2.63q-.52 0-.88.36-.37.37-.37.91v2.63q0 .52.37.88.36.37.88.37h2.63q.54 0 .91-.37.36-.36.36-.88v-2.63q0-.54-.36-.91-.37-.36-.91-.36Zm18.44-23.76v-3.85q0-.66-.66-.66h-6.42q-.64 0-.64.66v3.85q0 .64.64.64.65 0 .65.63v21.85q0 .64-.65.64-.64 0-.64.66v3.86q0 .63.64.63h6.42q.66 0 .66-.63v-3.86q0-.66-.66-.66-.64 0-.64-.64v-21.85q0-.63.64-.63.66 0 .66-.64Zm21.53 14.14v-3.88q0-.64-.64-.64h-2.61q-.61 0-.61.64v3.88q0 .63.61.63h2.61q.64 0 .64-.63Zm2.95 9.62h-9.76q-.64 0-1.1-.44-.44-.46-.44-1.1v-20.04q0-.64.44-1.08.46-.46 1.1-.46h9.76q.64 0 1.08.46.46.44.46 1.08v20.04q0 .64-.46 1.1-.44.44-1.08.44Zm5.13-28.27H133.5q-.64 0-1.08.46-.46.44-.46 1.1v30.32q0 .64.46 1.08.44.46 1.08.46h20.04q.63 0 1.1-.46.44-.44.44-1.08v-30.32q0-.66-.44-1.1-.47-.46-1.1-.46Z" transform="translate(-12.805 76.274)" data-gra="path-name" class="tp-name"/><path d="M.99 0v-7.22h1.8q1.68 0 2.54.93.87.92.87 2.65 0 .86-.22 1.53-.22.68-.65 1.15-.42.47-1.05.71Q3.65 0 2.84 0H.99Zm.91-.75h.83q1.26 0 1.9-.76.63-.76.63-2.13 0-1.38-.63-2.1-.64-.73-1.9-.73H1.9v5.72ZM7.75 0v-7.22h.92V0h-.92Zm2.48-3.61q0-.87.25-1.56.24-.69.69-1.18.45-.48 1.05-.74.61-.26 1.33-.26.75 0 1.25.28t.82.61l-.52.59q-.27-.29-.63-.48t-.91-.19q-.55 0-.99.2-.44.2-.75.58-.3.38-.47.92-.17.54-.17 1.21 0 .68.16 1.23.15.54.46.93.3.38.75.59.44.21 1.02.21.39 0 .74-.12.34-.11.56-.31v-1.88h-1.53v-.76h2.37V-.7q-.35.36-.93.6-.58.23-1.31.23-.71 0-1.3-.25-.6-.25-1.03-.73-.43-.48-.67-1.18-.24-.7-.24-1.58ZM17.43 0v-7.22h.92V0h-.92Zm4.39 0v-6.45h-2.17v-.77h5.28v.77h-2.18V0h-.93Zm4.87-2.94h2.16l-.34-1.1q-.2-.6-.37-1.2-.18-.6-.35-1.23h-.05q-.16.63-.34 1.23-.17.6-.37 1.2l-.34 1.1ZM29.77 0l-.69-2.2h-2.62l-.7 2.2h-.93l2.44-7.22h1.03L30.75 0h-.98Zm2 0v-7.22h.91v6.44h3.16V0h-4.07Zm7.57 0v-7.22h2.21q.59 0 1.09.11.49.11.84.36.34.25.54.66.19.4.19 1 0 .57-.19.99-.2.42-.55.69-.35.28-.84.41-.49.14-1.08.14h-1.3V0h-.91Zm.91-3.61h1.19q.94 0 1.4-.36.46-.35.46-1.12 0-.78-.47-1.09-.46-.3-1.39-.3h-1.19v2.87ZM45.67 0v-7.22h.91v6.44h3.16V0h-4.07Zm6.28-2.94h2.17l-.34-1.1q-.2-.6-.38-1.2l-.35-1.23h-.04q-.17.63-.34 1.23-.18.6-.38 1.2l-.34 1.1ZM55.03 0l-.68-2.2h-2.63L51.03 0h-.94l2.45-7.22h1.03L56.01 0h-.98Zm3.06 0v-6.45h-2.18v-.77h5.28v.77h-2.18V0h-.92Zm4.4 0v-7.22h4.16v.77H63.4V-4h2.75v.77H63.4V0h-.91Zm7.99.13q-.68 0-1.25-.26-.57-.27-.97-.76-.41-.49-.64-1.18-.22-.7-.22-1.57 0-.87.22-1.56.23-.68.64-1.16.4-.48.97-.73.57-.26 1.25-.26t1.25.26q.56.26.97.74.42.48.64 1.16.23.69.23 1.55 0 .87-.23 1.57-.22.69-.64 1.18-.41.49-.97.76-.57.26-1.25.26Zm0-.8q.48 0 .87-.21t.67-.6q.28-.39.44-.93.15-.55.15-1.23 0-.67-.15-1.21-.16-.54-.44-.91-.28-.38-.67-.58-.39-.2-.87-.2-.49 0-.88.2t-.67.58q-.28.37-.43.91-.16.54-.16 1.21 0 .68.16 1.23.15.54.43.93t.67.6q.39.21.88.21Zm5.55-5.81v2.69h1.21q.85 0 1.3-.35.45-.35.45-1.05 0-.72-.45-1-.45-.29-1.3-.29h-1.21ZM80.11 0h-1.03l-1.74-3.05h-1.31V0h-.91v-7.22h2.25q.55 0 1.02.11.47.1.8.35.34.24.53.62.18.39.18.95 0 .85-.44 1.35-.44.51-1.17.69L80.11 0Zm1.4 0v-7.22h1.08l1.4 3.88.52 1.47h.05l.5-1.47 1.39-3.88h1.08V0h-.87v-3.97q0-.49.04-1.07.04-.58.08-1.06h-.04l-.59 1.6-1.38 3.77h-.52l-1.4-3.77-.57-1.6h-.04q.03.48.07 1.06.05.58.05 1.07V0h-.85Zm9.69-.93.55-.64q.39.4.91.65t1.08.25q.72 0 1.11-.33.4-.32.4-.85 0-.27-.09-.47-.1-.19-.26-.33-.16-.13-.38-.24-.22-.11-.47-.23l-1.03-.45q-.26-.11-.52-.27-.27-.15-.47-.37-.21-.22-.34-.53-.14-.3-.14-.69 0-.41.17-.76.17-.35.48-.61.3-.26.71-.4.41-.15.91-.15.65 0 1.2.25.55.25.93.64l-.49.6q-.33-.32-.73-.5-.4-.18-.91-.18-.61 0-.97.28-.37.28-.37.77 0 .27.1.45.11.18.28.32.18.13.39.24.21.1.43.19l1.02.44q.31.13.58.3.28.17.48.4.19.22.31.53.11.3.11.7 0 .42-.17.8-.17.37-.49.65-.32.28-.77.44-.45.16-1.02.16-.76 0-1.41-.28-.65-.29-1.12-.78Zm7.68.93v-6.45H96.7v-.77h5.28v.77H99.8V0h-.92Zm4.37-2.98v-4.24h.91v4.26q0 .65.13 1.09.13.44.36.7.22.27.53.38.31.12.66.12.36 0 .67-.12.31-.11.54-.38.23-.26.37-.7.13-.44.13-1.09v-4.26h.88v4.24q0 .87-.2 1.46-.2.6-.55.96-.34.37-.82.53-.47.16-1.02.16t-1.03-.16q-.47-.16-.82-.53-.35-.36-.55-.96-.19-.59-.19-1.46ZM110.37 0v-7.22h1.81q1.67 0 2.54.93.87.92.87 2.65 0 .86-.22 1.53-.22.68-.65 1.15-.43.47-1.06.71-.62.25-1.44.25h-1.85Zm.92-.75h.82q1.27 0 1.9-.76.63-.76.63-2.13 0-1.38-.63-2.1-.63-.73-1.9-.73h-.82v5.72Zm5.85.75v-7.22h.91V0h-.91Zm5.55.13q-.68 0-1.24-.26-.57-.27-.98-.76-.41-.49-.63-1.18-.23-.7-.23-1.57 0-.87.23-1.56.22-.68.63-1.16.41-.48.98-.73.56-.26 1.24-.26.69 0 1.25.26.57.26.98.74.41.48.64 1.16.22.69.22 1.55 0 .87-.22 1.57-.23.69-.64 1.18-.41.49-.98.76-.56.26-1.25.26Zm0-.8q.49 0 .88-.21t.67-.6q.28-.39.43-.93.16-.55.16-1.23 0-.67-.16-1.21-.15-.54-.43-.91-.28-.38-.67-.58-.39-.2-.88-.2-.48 0-.87.2t-.67.58q-.28.37-.44.91-.15.54-.15 1.21 0 .68.15 1.23.16.54.44.93t.67.6q.39.21.87.21Z" transform="translate(2.865 88.622)" data-gra="path-slogan" class="tp-slogan" fill="#fff"/></mask><rect width="100%" height="100%" fill="none" class="background"/><g fill="#3a2b1a" class="iconmbgsvg"><g transform="translate(19.03 18.965) scale(1.22218)" mask="url(#b)"><path class="image-rect" fill="none" d="M0 0h132.5v132.606H0z"/><svg filter="url(#c)" width="132.5" height="132.606" class="image-svg-svg primary" style="overflow:visible"><svg fill="#000" xmlns="http://www.w3.org/2000/svg" viewBox="5.015 4.975 89.967 90.039"><path d="M49.999 4.975c-24.822 0-44.984 20.171-44.984 45.02 0 24.848 20.162 45.02 44.984 45.02 24.822 0 44.983-20.172 44.983-45.02 0-24.849-20.161-45.02-44.983-45.02zm0 3.032c23.227 0 42.02 18.787 42.02 41.988 0 23.2-18.793 41.987-42.02 41.987-23.227 0-42.02-18.787-42.02-41.987 0-23.2 18.793-41.988 42.02-41.988z" color="#000"/></svg></svg><defs><filter id="c"><feColorMatrix values="0 0 0 0 0.2265625 0 0 0 0 0.16796875 0 0 0 0 0.1015625 0 0 0 1 0" class="icon-fecolormatrix"/></filter><filter id="a"><feColorMatrix values="0 0 0 0 0.99609375 0 0 0 0 0.99609375 0 0 0 0 0.99609375 0 0 0 1 0" class="icon-fecolormatrix"/></filter></defs></g><path d="M8.966 112.185h30.787q.782 0 1.307-.537.575-.562.575-1.345V73.247q0-.807-.575-1.345-.525-.562-1.307-.562h-2.506q-.806 0-1.344.562-.562.538-.562 1.345v30.762q0 .782-.538 1.344-.575.538-1.345.538h-4.094q-.77 0-1.308-.538-.562-.562-.562-1.344V88.94q0-.77-.538-1.344-.574-.538-1.344-.538h-2.505q-.783 0-1.345.538-.538.575-.538 1.345v15.07q0 .781-.562 1.343-.538.538-1.32.538H15.26q-.782 0-1.344-.538-.538-.562-.538-1.344V73.247q0-.807-.574-1.345-.526-.562-1.333-.562H8.966q-.782 0-1.32.562-.562.538-.562 1.345v37.056q0 .783.562 1.345.538.537 1.32.537Zm68.259-6.294H52.732q-.77 0-1.308.562-.574.538-.574 1.345v2.505q0 .783.574 1.32.538.562 1.308.562h24.493q.782 0 1.344-.562.538-.537.538-1.32v-2.505q0-.807-.538-1.345-.562-.562-1.344-.562Zm0-17.281H52.732q-.77 0-1.308.574-.574.538-.574 1.344v2.506q0 .77.574 1.332.538.538 1.308.538h24.493q.782 0 1.344-.538.538-.562.538-1.332v-2.506q0-.806-.538-1.344-.562-.574-1.344-.574Zm0-17.27H52.732q-.77 0-1.308.562-.574.538-.574 1.345v2.505q0 .782.574 1.345.538.537 1.308.537h24.493q.782 0 1.344-.537.538-.563.538-1.345v-2.505q0-.807-.538-1.345-.562-.562-1.344-.562Zm37.484 0H90.204q-.77 0-1.332.562-.538.538-.538 1.345v2.505q0 .782.538 1.345.562.537 1.332.537h18.235q.782 0 1.32.563.562.537.562 1.32v7.21q0 .783-.562 1.345-.538.538-1.32.538H90.204q-.77 0-1.332.574-.538.538-.538 1.344v2.506q0 .77.538 1.332.562.538 1.332.538h18.235q.782 0 1.32.574.562.538.562 1.308v7.223q0 .782-.562 1.344-.538.538-1.32.538H90.204q-.77 0-1.332.562-.538.538-.538 1.345v2.505q0 .783.538 1.32.562.562 1.332.562h24.505q.77 0 1.344-.562.538-.537.538-1.32V73.247q0-.807-.538-1.345-.574-.562-1.344-.562Zm17.6 34.551h-3.215q-.636 0-1.076.44-.452.452-.452 1.112v3.215q0 .635.452 1.075.44.452 1.076.452h3.214q.66 0 1.113-.452.44-.44.44-1.075v-3.215q0-.66-.44-1.112-.453-.44-1.113-.44Zm22.536-29.039v-4.705q0-.807-.806-.807h-7.847q-.782 0-.782.807v4.705q0 .782.782.782.795 0 .795.77v26.705q0 .782-.795.782-.782 0-.782.807v4.717q0 .77.782.77h7.847q.806 0 .806-.77v-4.717q0-.807-.806-.807-.782 0-.782-.782V78.404q0-.77.782-.77.806 0 .806-.782Zm26.314 17.282v-4.742q0-.782-.782-.782h-3.19q-.746 0-.746.782v4.742q0 .77.746.77h3.19q.782 0 .782-.77Zm3.605 11.757h-11.928q-.782 0-1.345-.538-.537-.562-.537-1.344V79.517q0-.783.537-1.32.563-.563 1.345-.563h11.928q.782 0 1.32.563.562.537.562 1.32v24.492q0 .782-.562 1.344-.538.538-1.32.538Zm6.27-34.55h-24.492q-.783 0-1.32.561-.563.538-.563 1.345v37.056q0 .783.563 1.32.537.562 1.32.562h24.492q.77 0 1.344-.562.538-.537.538-1.32V73.247q0-.807-.538-1.345-.574-.562-1.344-.562Z" data-gra="path-name" class="tp-name"/><path d="M23.742 127.277v-8.824h2.2q2.053 0 3.104 1.136 1.064 1.125 1.064 3.24 0 1.05-.27 1.87-.268.83-.794 1.405-.513.574-1.283.867-.77.306-1.76.306h-2.26Zm1.112-.917h1.015q1.54 0 2.322-.929.77-.928.77-2.603 0-1.686-.77-2.566-.782-.893-2.322-.893h-1.015v6.991Zm7.15.917v-8.824h1.124v8.824h-1.124Zm3.031-4.412q0-1.063.306-1.907.293-.843.843-1.442.55-.587 1.283-.904.746-.318 1.626-.318.916 0 1.527.342t1.003.746l-.636.72q-.33-.354-.77-.586t-1.112-.232q-.672 0-1.21.244-.538.245-.917.71-.366.464-.574 1.124-.208.66-.208 1.478 0 .832.196 1.504.183.66.562 1.136.367.465.916.721.538.257 1.247.257.477 0 .905-.147.415-.134.684-.378v-2.298h-1.87v-.929h2.897v3.715q-.428.44-1.137.734-.709.28-1.601.28-.868 0-1.589-.305-.733-.305-1.259-.892-.525-.587-.819-1.442-.293-.856-.293-1.931Zm8.8 4.412v-8.824h1.124v8.824h-1.124Zm5.365 0v-7.883h-2.652v-.941h6.453v.94h-2.664v7.884H49.2Zm5.952-3.593h2.64l-.416-1.345q-.244-.733-.452-1.466-.22-.734-.427-1.504h-.062q-.195.77-.415 1.504-.208.733-.452 1.466l-.416 1.345Zm3.764 3.593-.843-2.689h-3.202l-.856 2.689H52.88l2.982-8.824h1.259l2.994 8.824h-1.198Zm2.445 0v-8.824h1.112v7.87h3.862v.954h-4.974Zm9.252 0v-8.824h2.7q.722 0 1.333.134.599.135 1.027.44.415.306.66.807.232.489.232 1.222 0 .697-.233 1.21-.244.513-.672.843-.427.343-1.026.501-.6.172-1.32.172h-1.59v3.495h-1.111Zm1.112-4.412h1.454q1.15 0 1.711-.44.563-.428.563-1.369 0-.953-.575-1.332-.562-.367-1.699-.367h-1.454v3.508Zm6.624 4.412v-8.824h1.112v7.87h3.862v.954H78.35Zm7.675-3.593h2.653l-.416-1.345q-.244-.733-.464-1.466l-.428-1.504h-.05q-.207.77-.415 1.504-.22.733-.464 1.466l-.416 1.345Zm3.765 3.593-.831-2.689h-3.215l-.843 2.689h-1.149l2.994-8.824h1.26l2.981 8.824H89.79Zm3.74 0v-7.883h-2.665v-.941h6.453v.94h-2.664v7.884h-1.124Zm5.377 0v-8.824h5.084v.94h-3.972v2.995h3.361v.941h-3.36v3.948h-1.113Zm9.765.159q-.83 0-1.527-.318-.697-.33-1.186-.929-.501-.599-.782-1.442-.269-.855-.269-1.919 0-1.063.269-1.906.281-.831.782-1.418.489-.587 1.186-.892.696-.318 1.527-.318t1.528.318q.685.317 1.186.904.513.587.782 1.418.28.843.28 1.894 0 1.064-.28 1.919-.27.843-.782 1.442-.501.6-1.186.93-.697.317-1.528.317Zm0-.978q.587 0 1.064-.257t.819-.733q.342-.477.537-1.137.184-.672.184-1.503 0-.819-.184-1.479-.195-.66-.537-1.112-.343-.464-.82-.709-.476-.244-1.063-.244-.598 0-1.075.244t-.819.71q-.342.451-.526 1.111-.195.66-.195 1.48 0 .83.195 1.502.184.66.526 1.137t.819.733q.477.257 1.075.257Zm6.783-7.1v3.287h1.48q1.038 0 1.588-.428t.55-1.283q0-.88-.55-1.222-.55-.355-1.589-.355h-1.479Zm4.987 7.919h-1.259l-2.126-3.728h-1.602v3.728h-1.112v-8.824h2.75q.672 0 1.247.134.574.122.978.428.415.293.647.758.22.476.22 1.16 0 1.04-.537 1.65-.538.624-1.43.844l2.224 3.85Zm1.711 0v-8.824h1.32l1.711 4.742.636 1.796h.06l.612-1.796 1.699-4.742h1.32v8.824h-1.064v-4.852q0-.599.05-1.308.048-.709.097-1.295h-.049l-.721 1.955-1.687 4.608h-.635l-1.711-4.608-.697-1.955h-.049q.037.586.086 1.295.06.709.06 1.308v4.852h-1.038Zm11.843-1.137.672-.782q.477.489 1.112.795t1.32.305q.88 0 1.357-.403.489-.391.489-1.04 0-.33-.11-.574-.122-.232-.318-.403-.196-.159-.464-.293-.27-.135-.575-.281l-1.259-.55q-.317-.135-.635-.33-.33-.184-.575-.452-.256-.27-.415-.648-.171-.367-.171-.843 0-.502.207-.93.208-.427.587-.745.367-.318.868-.489.501-.183 1.112-.183.794 0 1.467.305.672.306 1.136.783l-.599.733q-.403-.391-.892-.611-.489-.22-1.112-.22-.745 0-1.185.342-.453.342-.453.941 0 .33.123.55.134.22.342.391.22.16.476.294.257.122.526.232l1.247.538q.378.158.708.366.343.208.587.49.232.268.379.647.134.366.134.855 0 .514-.207.978-.208.452-.6.795-.39.342-.94.537-.55.196-1.247.196-.929 0-1.723-.342-.795-.355-1.37-.954Zm9.386 1.137v-7.883h-2.664v-.941h6.453v.94h-2.664v7.884h-1.125Zm5.341-3.642v-5.182h1.112v5.206q0 .795.16 1.332.158.538.44.856.268.33.647.464.379.147.807.147.44 0 .819-.147.378-.134.66-.464.28-.318.452-.856.159-.537.159-1.332v-5.206h1.075v5.182q0 1.063-.244 1.784-.245.734-.673 1.174-.415.452-1.002.647-.574.196-1.246.196t-1.26-.196q-.574-.195-1.001-.647-.428-.44-.673-1.174-.232-.72-.232-1.784Zm8.702 3.642v-8.824h2.212q2.041 0 3.105 1.136 1.063 1.125 1.063 3.24 0 1.05-.269 1.87-.269.83-.794 1.405-.526.574-1.296.867-.758.306-1.76.306h-2.26Zm1.125-.917h1.002q1.552 0 2.322-.929.77-.928.77-2.603 0-1.686-.77-2.566-.77-.893-2.322-.893h-1.002v6.991Zm7.15.917v-8.824h1.111v8.824h-1.112Zm6.782.159q-.83 0-1.515-.318-.697-.33-1.198-.929-.5-.599-.77-1.442-.28-.855-.28-1.919 0-1.063.28-1.906.27-.831.77-1.418.501-.587 1.198-.892.684-.318 1.515-.318.844 0 1.528.318.697.317 1.198.904.5.587.782 1.418.269.843.269 1.894 0 1.064-.269 1.919-.281.843-.782 1.442-.501.6-1.198.93-.684.317-1.528.317Zm0-.978q.6 0 1.076-.257t.819-.733q.342-.477.525-1.137.196-.672.196-1.503 0-.819-.196-1.479-.183-.66-.525-1.112-.342-.464-.82-.709-.476-.244-1.075-.244-.586 0-1.063.244t-.819.71q-.342.451-.538 1.111-.183.66-.183 1.48 0 .83.183 1.502.196.66.538 1.137t.82.733q.476.257 1.062.257Z" data-gra="path-slogan" class="tp-slogan"/></g></svg>