<svg xmlns="http://www.w3.org/2000/svg" width="200" height="200" fill="none"><path fill="#000" d="M12.772 119.559h28.993a1.65 1.65 0 0 0 1.23-.507 1.71 1.71 0 0 0 .542-1.269V82.8c0-.508-.18-.93-.541-1.27-.33-.353-.74-.53-1.231-.53h-2.36c-.506 0-.928.177-1.266.53a1.69 1.69 0 0 0-.53 1.27v29.041c0 .492-.168.915-.506 1.269a1.795 1.795 0 0 1-1.266.508H31.98c-.483 0-.894-.17-1.231-.508a1.734 1.734 0 0 1-.53-1.269V97.615c0-.484-.169-.907-.506-1.269a1.79 1.79 0 0 0-1.266-.508h-2.359c-.491 0-.914.17-1.267.508a1.802 1.802 0 0 0-.506 1.27v14.227c0 .491-.177.914-.53 1.268a1.69 1.69 0 0 1-1.242.507h-3.845c-.49 0-.912-.169-1.265-.507a1.774 1.774 0 0 1-.507-1.269V82.8c0-.508-.18-.93-.54-1.27-.33-.353-.75-.53-1.256-.53h-2.359c-.49 0-.905.177-1.243.53-.353.34-.529.762-.529 1.27v34.983c0 .492.176.916.53 1.269a1.69 1.69 0 0 0 1.242.507Zm64.28-5.941H53.987a1.64 1.64 0 0 0-1.232.53 1.67 1.67 0 0 0-.54 1.27v2.365c0 .492.18.908.54 1.246.338.353.749.53 1.232.53h23.065c.491 0 .913-.177 1.266-.53.338-.338.507-.754.507-1.246v-2.365c0-.508-.169-.931-.507-1.27a1.723 1.723 0 0 0-1.266-.53Zm0-16.314H53.987c-.483 0-.894.18-1.232.541-.36.339-.54.762-.54 1.27v2.365c0 .485.18.904.54 1.257.338.339.749.508 1.232.508h23.065c.491 0 .913-.169 1.266-.508.338-.353.507-.772.507-1.257v-2.366c0-.507-.169-.93-.507-1.269a1.707 1.707 0 0 0-1.266-.541Zm0-16.304H53.987a1.64 1.64 0 0 0-1.232.53 1.67 1.67 0 0 0-.54 1.27v2.365c0 .492.18.915.54 1.27.338.338.749.507 1.232.507h23.065c.491 0 .913-.17 1.266-.507.338-.355.507-.778.507-1.27V82.8c0-.508-.169-.93-.507-1.27a1.725 1.725 0 0 0-1.266-.53Zm35.3 0H89.275c-.483 0-.901.177-1.254.53-.338.34-.507.762-.507 1.27v2.365c0 .492.169.915.507 1.27.353.338.77.507 1.254.507h17.172c.491 0 .905.177 1.243.531.353.338.529.754.529 1.246v6.807c0 .493-.176.916-.529 1.27a1.688 1.688 0 0 1-1.243.508H89.275c-.483 0-.901.18-1.254.541-.338.339-.507.762-.507 1.27v2.365c0 .485.169.904.507 1.257a1.75 1.75 0 0 0 1.254.508h17.172c.491 0 .905.181 1.243.542.353.339.529.75.529 1.235v6.819c0 .492-.176.915-.529 1.269a1.69 1.69 0 0 1-1.243.508H89.275a1.71 1.71 0 0 0-1.254.53c-.338.339-.507.762-.507 1.27v2.365c0 .492.169.908.507 1.246.353.353.77.53 1.254.53h23.077a1.75 1.75 0 0 0 1.265-.53c.338-.338.507-.754.507-1.246V82.8c0-.508-.169-.93-.507-1.27a1.748 1.748 0 0 0-1.265-.53Zm16.574 32.618h-3.028c-.399 0-.737.138-1.013.415a1.427 1.427 0 0 0-.426 1.05v3.035c0 .399.142.738.426 1.015.276.284.614.426 1.013.426h3.027c.414 0 .764-.142 1.048-.426.276-.277.414-.616.414-1.015v-3.035c0-.416-.138-.766-.414-1.05a1.441 1.441 0 0 0-1.047-.415Zm21.222-27.414v-4.442c0-.508-.253-.762-.759-.762h-7.39c-.49 0-.736.254-.736.762v4.442c0 .492.246.738.736.738.5 0 .749.242.749.727v25.21c0 .492-.249.739-.749.739-.49 0-.736.253-.736.761v4.453c0 .485.246.727.736.727h7.39c.506 0 .759-.242.759-.727v-4.453c0-.508-.253-.761-.759-.761-.491 0-.736-.247-.736-.739v-25.21c0-.485.245-.727.736-.727.506 0 .759-.246.759-.738Zm24.78 16.314v-4.476c0-.492-.245-.738-.736-.738h-3.004c-.469 0-.703.246-.703.738v4.476c0 .485.234.727.703.727h3.004c.491 0 .736-.242.736-.727Zm3.395 11.1H167.09c-.491 0-.913-.17-1.266-.508a1.777 1.777 0 0 1-.506-1.269V88.719c0-.492.169-.908.506-1.246a1.725 1.725 0 0 1 1.266-.531h11.233c.491 0 .905.177 1.243.531.353.338.529.754.529 1.246v23.122c0 .492-.176.915-.529 1.269a1.69 1.69 0 0 1-1.243.508Zm5.905-32.617h-23.065c-.491 0-.906.176-1.243.53-.353.338-.53.761-.53 1.27v34.982c0 .492.177.908.53 1.246.337.353.752.53 1.243.53h23.065a1.75 1.75 0 0 0 1.265-.53c.338-.338.507-.754.507-1.246V82.8c0-.508-.169-.93-.507-1.27a1.747 1.747 0 0 0-1.265-.529ZM30 133.246v-8.1h2.02c1.256 0 2.206.348 2.849 1.043.65.688.976 1.68.976 2.974 0 .642-.082 1.215-.247 1.716a3.453 3.453 0 0 1-.73 1.29 2.963 2.963 0 0 1-1.177.796c-.471.187-1.01.281-1.616.281H30Zm1.02-.842h.932c.943 0 1.653-.284 2.132-.853.471-.568.707-1.364.707-2.389 0-1.032-.236-1.817-.707-2.355-.479-.547-1.19-.82-2.132-.82h-.931v6.417Zm6.564.842v-8.1h1.032v8.1h-1.032Zm2.782-4.05c0-.651.094-1.234.281-1.751.18-.515.437-.957.774-1.323.337-.36.73-.636 1.178-.83A3.76 3.76 0 0 1 44.09 125c.56 0 1.028.105 1.402.314.374.209.68.437.92.685l-.583.661a2.636 2.636 0 0 0-.707-.538c-.27-.142-.61-.213-1.02-.213-.412 0-.782.074-1.111.224-.33.15-.61.367-.842.651-.224.284-.4.628-.527 1.032s-.191.856-.191 1.357c0 .509.06.969.18 1.381.112.403.284.751.516 1.042.224.285.505.505.84.662.33.157.711.236 1.145.236.292 0 .57-.045.831-.135a1.7 1.7 0 0 0 .628-.347v-2.109h-1.717v-.853h2.66v3.41c-.262.269-.61.494-1.044.674a3.98 3.98 0 0 1-1.47.257 3.7 3.7 0 0 1-1.458-.28 3.171 3.171 0 0 1-1.156-.819 3.813 3.813 0 0 1-.752-1.324c-.18-.523-.269-1.114-.269-1.772Zm8.078 4.05v-8.1h1.032v8.1h-1.032Zm4.925 0v-7.236h-2.434v-.864h5.923v.863h-2.445v7.237h-1.044Zm5.463-3.298h2.424l-.382-1.235c-.15-.449-.288-.897-.415-1.346a50.047 50.047 0 0 1-.392-1.38h-.057c-.12.471-.246.931-.38 1.38a31.48 31.48 0 0 1-.416 1.346l-.382 1.235Zm3.456 3.298-.774-2.469h-2.94l-.785 2.469h-1.042l2.737-8.1h1.156l2.748 8.1h-1.1Zm2.244 0v-8.1h1.02v7.224h3.546v.876h-4.566Zm8.493 0v-8.1h2.478c.442 0 .85.041 1.224.123.366.083.68.217.942.404.254.187.456.434.606.741.142.299.213.673.213 1.121 0 .427-.071.797-.214 1.111a2.094 2.094 0 0 1-.617.774c-.26.21-.575.363-.941.46a4.395 4.395 0 0 1-1.212.158h-1.46v3.208h-1.02Zm1.02-4.05h1.335c.704 0 1.227-.135 1.57-.404.345-.262.517-.681.517-1.257 0-.583-.175-.99-.527-1.222-.344-.225-.864-.337-1.56-.337h-1.335v3.22Zm6.08 4.05v-8.1h1.022v7.224h3.545v.876h-4.566Zm7.046-3.298h2.435l-.382-1.235a49.78 49.78 0 0 1-.426-1.346l-.392-1.38h-.046c-.127.471-.254.931-.381 1.38a49.78 49.78 0 0 1-.426 1.346l-.382 1.235Zm3.456 3.298-.763-2.469h-2.951l-.774 2.469h-1.055l2.749-8.1h1.156l2.737 8.1h-1.099Zm3.433 0v-7.236h-2.446v-.864h5.923v.863h-2.445v7.237H94.06Zm4.936 0v-8.1h4.667v.863h-3.646v2.749h3.085v.864h-3.085v3.624h-1.021Zm8.963.146c-.507 0-.975-.098-1.401-.292a3.094 3.094 0 0 1-1.089-.853 4.007 4.007 0 0 1-.718-1.324 5.872 5.872 0 0 1-.247-1.761c0-.651.083-1.234.247-1.75.172-.508.411-.942.718-1.301.299-.36.662-.632 1.089-.819a3.326 3.326 0 0 1 1.401-.292c.509 0 .977.097 1.403.292.419.194.782.47 1.089.83.314.359.553.793.718 1.301.171.516.257 1.096.257 1.739a5.65 5.65 0 0 1-.257 1.761 3.801 3.801 0 0 1-.718 1.324c-.307.367-.67.652-1.089.854a3.346 3.346 0 0 1-1.403.291Zm0-.898c.36 0 .685-.079.977-.236.292-.157.543-.381.752-.673.209-.292.374-.64.493-1.043.112-.412.169-.872.169-1.38 0-.501-.057-.954-.169-1.358a3.147 3.147 0 0 0-.493-1.02 2.16 2.16 0 0 0-.753-.651 2.097 2.097 0 0 0-.976-.224c-.366 0-.694.074-.986.224a2.127 2.127 0 0 0-.752.651c-.209.276-.37.616-.483 1.02a4.804 4.804 0 0 0-.179 1.359c0 .508.06.967.179 1.379.113.403.274.751.483 1.043.209.292.46.516.752.673.292.157.62.236.986.236Zm6.227-6.517v3.017h1.358c.636 0 1.121-.131 1.458-.393.337-.262.505-.654.505-1.178 0-.538-.168-.912-.505-1.121-.337-.218-.823-.326-1.459-.326l-1.357.001Zm4.578 7.269h-1.156l-1.952-3.422h-1.47v3.422h-1.021v-8.1h2.524c.412 0 .793.041 1.145.123.351.075.651.206.898.393.254.179.452.411.594.696.134.291.202.646.202 1.064 0 .637-.165 1.142-.493 1.515-.33.382-.767.64-1.313.775l2.042 3.534Zm1.57 0v-8.1h1.212l1.57 4.353.584 1.648h.055l.562-1.648 1.56-4.353h1.211v8.1h-.976v-4.454c0-.367.015-.767.046-1.201.029-.434.059-.83.089-1.188h-.045l-.662 1.794-1.549 4.23h-.583l-1.57-4.23-.64-1.794h-.045c.023.358.049.754.079 1.188.037.434.055.834.055 1.201v4.454h-.953Zm10.871-1.044.617-.718c.292.3.632.543 1.021.73.388.187.792.281 1.212.28.538 0 .953-.123 1.245-.37a1.16 1.16 0 0 0 .449-.955c0-.201-.034-.377-.101-.526a1.269 1.269 0 0 0-.292-.37 2.288 2.288 0 0 0-.426-.269 26.952 26.952 0 0 0-.528-.258l-1.155-.505a4.51 4.51 0 0 1-.583-.303 2.095 2.095 0 0 1-.528-.415 1.935 1.935 0 0 1-.381-.595 1.804 1.804 0 0 1-.157-.774c0-.307.063-.591.19-.853s.307-.49.539-.684c.225-.195.49-.344.797-.449a2.953 2.953 0 0 1 1.02-.168c.486 0 .935.093 1.347.28.411.187.759.427 1.043.719l-.55.673a2.833 2.833 0 0 0-.819-.561 2.455 2.455 0 0 0-1.021-.202c-.455 0-.818.104-1.087.314-.277.209-.416.497-.416.863 0 .202.038.371.113.505.082.135.186.255.314.359.134.098.28.188.437.27.157.075.318.146.483.213l1.144.494c.231.097.448.209.65.336a2.006 2.006 0 0 1 .887 1.044c.082.224.123.485.123.784 0 .315-.064.614-.19.898a2.16 2.16 0 0 1-.551.73 2.619 2.619 0 0 1-.863.493c-.336.12-.718.18-1.144.18a3.96 3.96 0 0 1-1.582-.314 3.944 3.944 0 0 1-1.257-.876Zm8.616 1.044v-7.236h-2.445v-.864h5.923v.863h-2.445v7.237h-1.033Zm4.903-3.343v-4.757h1.02v4.779c0 .486.049.894.147 1.222.097.33.232.592.404.786.164.202.362.344.594.426.232.09.479.135.741.135.269 0 .52-.045.752-.135.231-.082.433-.224.606-.426.171-.194.309-.456.414-.786.098-.328.146-.736.146-1.222v-4.779h.987v4.757c0 .65-.074 1.196-.224 1.637-.15.449-.356.809-.618 1.078a2.14 2.14 0 0 1-.919.594c-.352.12-.733.18-1.144.18-.411 0-.797-.06-1.157-.18a2.239 2.239 0 0 1-.919-.594c-.261-.269-.467-.629-.617-1.078-.142-.44-.213-.986-.213-1.637Zm7.988 3.343v-8.1h2.03c1.249 0 2.199.348 2.85 1.043.651.688.976 1.68.976 2.974 0 .642-.082 1.215-.247 1.716a3.466 3.466 0 0 1-.729 1.29 3.064 3.064 0 0 1-1.189.796c-.464.187-1.003.281-1.616.281h-2.075Zm1.032-.842h.92c.95 0 1.66-.284 2.131-.853.472-.568.707-1.364.707-2.389 0-1.032-.235-1.817-.707-2.355-.471-.547-1.181-.82-2.131-.82h-.92v6.417Zm6.564.842v-8.1h1.019v8.1h-1.02.001Zm6.225.146c-.508 0-.972-.098-1.391-.292a3.202 3.202 0 0 1-1.099-.853 3.883 3.883 0 0 1-.707-1.324 5.62 5.62 0 0 1-.257-1.761c0-.651.085-1.234.257-1.75a3.78 3.78 0 0 1 .707-1.301c.306-.36.673-.632 1.099-.819a3.254 3.254 0 0 1 1.391-.292c.516 0 .984.097 1.403.292.426.194.793.47 1.099.83.306.359.546.793.718 1.301.165.516.247 1.096.247 1.739a5.84 5.84 0 0 1-.247 1.761 4.007 4.007 0 0 1-.718 1.324 3.205 3.205 0 0 1-1.099.854 3.3 3.3 0 0 1-1.403.291Zm0-.898c.367 0 .696-.079.988-.236.291-.157.542-.381.751-.673.21-.292.37-.64.482-1.043.12-.412.18-.872.18-1.38 0-.501-.06-.954-.18-1.358a2.98 2.98 0 0 0-.482-1.02 2.147 2.147 0 0 0-.752-.651 2.125 2.125 0 0 0-.987-.224c-.359 0-.684.074-.976.224a2.136 2.136 0 0 0-.752.651 3.147 3.147 0 0 0-.493 1.02 5.087 5.087 0 0 0-.168 1.359c0 .508.056.967.168 1.379.119.403.284.751.493 1.043.21.292.461.516.753.673.291.157.616.236.975.236Z"/><path fill="#000" d="M28.929 76c10.02-29.64 38.076-51 71.072-51s61.052 21.36 71.07 51h-5.237c-9.798-26.818-35.556-45.949-65.833-45.949-30.276 0-56.034 19.131-65.833 45.949a69.463 69.463 0 0 0-3.672 15.15 6.831 6.831 0 0 0-2.048-.312h-2.359c-.18 0-.359.007-.536.02A74.494 74.494 0 0 1 28.929 76Zm6.411 62c13.048 22.135 37.136 37 64.661 37s51.612-14.865 64.659-37h-5.817c-12.477 19.231-34.158 31.947-58.842 31.947-24.685 0-46.366-12.716-58.843-31.947h-5.817Z"/></svg>